<svg width="40" height="35" viewBox="0 0 40 35" fill="none" xmlns="http://www.w3.org/2000/svg">
<path d="M38.625 15.3125L35 12.1428V4.375C35 3.17188 33.875 2.1875 32.5 2.1875H30C28.625 2.1875 27.5 3.17188 27.5 4.375V5.58469L22.5 1.21406C21.8175 0.649688 21.1925 0 20 0C18.8075 0 18.1825 0.649688 17.5 1.21406L1.375 15.3125C0.595 16.0234 0 16.5419 0 17.5C0 18.7316 1.08 19.6875 2.5 19.6875H5V32.8125C5 34.0156 6.125 35 7.5 35H15V24.0625C15 22.8594 16.125 21.875 17.5 21.875H22.5C23.875 21.875 25 22.8594 25 24.0625V35H32.5C33.875 35 35 34.0156 35 32.8125V19.6875H37.5C38.92 19.6875 40 18.7316 40 17.5C40 16.5419 39.405 16.0234 38.625 15.3125Z" fill="#1A1A32"/>
</svg>
